<svg xmlns="http://www.w3.org/2000/svg" xmlns:xlink="http://www.w3.org/1999/xlink" width="500" zoomAndPan="magnify" viewBox="0 0 375 374.999991" height="500" preserveAspectRatio="xMidYMid meet" version="1.0"><defs><g/></defs><g fill="#ffffff" fill-opacity="1"><g transform="translate(103.879107, 223.299485)"><g><path d="M 89.199219 -1.703125 L 46.019531 -112.777344 C 45.59375 -113.910156 43.605469 -113.910156 43.179688 -112.777344 L 0.140625 -1.703125 C -0.285156 -0.851562 0.285156 0 1.5625 0 L 21.019531 0 C 21.589844 0 22.300781 -0.285156 22.441406 -0.851562 L 44.597656 -64.199219 L 67.039062 -0.851562 C 67.183594 -0.285156 67.894531 0 68.320312 0 L 87.917969 0 C 88.914062 0 89.625 -0.851562 89.199219 -1.703125 Z M 89.199219 -1.703125 "/></g></g></g><g fill="#ffffff" fill-opacity="1"><g transform="translate(197.390617, 270.772804)"><g><path d="M 77.550781 -1.847656 C 70.449219 -17.613281 62.78125 -33.234375 55.675781 -49.285156 C 67.039062 -53.40625 76.558594 -62.496094 76.558594 -79.824219 C 76.558594 -113.34375 44.597656 -113.628906 38.207031 -113.628906 L 1.421875 -113.628906 C 0.710938 -113.628906 0 -112.917969 0 -112.351562 L 0 -93.03125 L 38.207031 -93.03125 C 41.617188 -93.03125 54.96875 -92.324219 54.96875 -79.824219 C 54.96875 -67.324219 42.894531 -66.757812 38.207031 -66.757812 L 0 -66.757812 L 0 -1.277344 C 0 -0.710938 0.710938 0 1.421875 0 L 20.027344 0 C 20.878906 0 21.589844 -0.710938 21.589844 -1.277344 L 21.589844 -45.878906 L 33.804688 -45.878906 L 54.542969 -0.851562 C 54.683594 -0.425781 55.535156 0 55.960938 0 L 76.273438 0 C 77.410156 0 77.976562 -0.851562 77.550781 -1.847656 Z M 77.550781 -1.847656 "/></g></g></g><g fill="#ffffff" fill-opacity="1"><g transform="translate(120.396456, 251.745379)"><g><path d="M 8.140625 -10.03125 L 8.140625 -7.796875 L 5.40625 -7.796875 L 5.40625 0 L 2.921875 0 L 2.921875 -7.796875 L 0.1875 -7.796875 L 0.1875 -10.03125 Z M 8.140625 -10.03125 "/></g></g></g><g fill="#ffffff" fill-opacity="1"><g transform="translate(137.45044, 251.745379)"><g><path d="M 7.6875 -2.3125 L 7.6875 0 L 0.765625 0 L 0.765625 -10.03125 L 7.53125 -10.03125 L 7.53125 -7.796875 L 3.25 -7.796875 L 3.25 -6.125 L 6.9375 -6.125 L 6.9375 -4.046875 L 3.25 -4.046875 L 3.25 -2.3125 Z M 7.6875 -2.3125 "/></g></g></g><g fill="#ffffff" fill-opacity="1"><g transform="translate(154.248489, 251.745379)"><g><path d="M 5.125 -2.15625 C 5.550781 -2.15625 6.015625 -2.203125 6.515625 -2.296875 C 7.015625 -2.390625 7.460938 -2.507812 7.859375 -2.65625 L 7.859375 -0.46875 C 7.265625 -0.226562 6.734375 -0.0664062 6.265625 0.015625 C 5.796875 0.109375 5.304688 0.15625 4.796875 0.15625 C 3.867188 0.15625 3.128906 0.0507812 2.578125 -0.15625 C 2.023438 -0.375 1.582031 -0.71875 1.25 -1.1875 C 0.96875 -1.59375 0.757812 -2.109375 0.625 -2.734375 C 0.5 -3.367188 0.4375 -4.132812 0.4375 -5.03125 C 0.4375 -6.820312 0.820312 -8.128906 1.59375 -8.953125 C 2.363281 -9.773438 3.59375 -10.1875 5.28125 -10.1875 C 5.769531 -10.1875 6.207031 -10.175781 6.59375 -10.15625 C 6.976562 -10.132812 7.320312 -10.097656 7.625 -10.046875 L 7.625 -7.890625 C 7.28125 -7.910156 6.914062 -7.925781 6.53125 -7.9375 C 6.15625 -7.945312 5.738281 -7.953125 5.28125 -7.953125 C 4.695312 -7.953125 4.257812 -7.894531 3.96875 -7.78125 C 3.6875 -7.664062 3.476562 -7.472656 3.34375 -7.203125 C 3.21875 -6.984375 3.125 -6.695312 3.0625 -6.34375 C 3.007812 -6 2.984375 -5.5625 2.984375 -5.03125 C 2.984375 -4.519531 3.007812 -4.097656 3.0625 -3.765625 C 3.113281 -3.429688 3.191406 -3.148438 3.296875 -2.921875 C 3.429688 -2.648438 3.628906 -2.453125 3.890625 -2.328125 C 4.160156 -2.210938 4.570312 -2.15625 5.125 -2.15625 Z M 5.125 -2.15625 "/></g></g></g><g fill="#ffffff" fill-opacity="1"><g transform="translate(171.094523, 251.745379)"><g><path d="M 3.25 0 L 0.765625 0 L 0.765625 -10.03125 L 3.25 -10.03125 L 3.25 -6.203125 L 6.765625 -6.203125 L 6.765625 -10.03125 L 9.25 -10.03125 L 9.25 0 L 6.765625 0 L 6.765625 -3.96875 L 3.25 -3.96875 Z M 3.25 0 "/></g></g></g></svg>